<?xml version="1.0" standalone="no"?>
<!DOCTYPE svg PUBLIC "-//W3C//DTD SVG 20010904//EN"
 "http://www.w3.org/TR/2001/REC-SVG-20010904/DTD/svg10.dtd">
<svg version="1.0" xmlns="http://www.w3.org/2000/svg"
 width="36.000000pt" height="47.000000pt" viewBox="0 0 36.000000 47.000000"
 preserveAspectRatio="xMidYMid meet">

<g transform="translate(0.000000,47.000000) scale(0.100000,-0.100000)"
fill="#000000" stroke="none">
<path d="M18 444 c21 -15 22 -20 22 -205 0 -176 -1 -190 -20 -209 l-20 -20
120 0 c180 0 211 24 208 162 -1 40 -4 60 -6 45 l-3 -28 -30 26 c-42 35 -64 32
-28 -4 23 -24 29 -38 29 -75 0 -56 -15 -91 -46 -105 -53 -24 -77 21 -72 132
l3 74 -28 -10 c-29 -10 -43 -5 -33 11 3 6 35 24 71 40 36 17 76 42 90 56 25
25 33 69 17 92 -11 17 -48 34 -74 33 l-23 0 22 -9 c12 -5 29 -20 39 -35 22
-33 6 -72 -42 -103 -20 -13 -37 -22 -37 -20 -16 31 -28 44 -48 46 -19 3 -22 1
-12 -9 18 -18 16 -66 -2 -73 -20 -7 -20 -46 0 -46 12 0 15 -14 15 -62 0 -45 6
-72 20 -95 l20 -33 -45 0 -45 0 0 214 c0 196 2 215 18 219 9 3 -10 5 -43 6
-56 1 -58 0 -37 -15z"/>
<path d="M312 326 c7 -8 15 -11 18 -7 3 3 9 9 14 14 5 4 -3 7 -18 7 -22 0 -25
-2 -14 -14z"/>
</g>
</svg>
